<svg width="429" height="429" viewBox="0 0 429 429" fill="none" xmlns="http://www.w3.org/2000/svg">
<path d="M214.699 429C333.054 429 429 332.965 429 214.5C429 96.0349 333.054 0 214.699 0C96.3436 0 0.397705 96.0349 0.397705 214.5C0.397705 332.965 96.3436 429 214.699 429Z" fill="#D0D8DA"/>
<path d="M331.079 258.048C332.045 261.744 332.499 265.609 332.499 269.418C332.499 284.711 324.888 298.981 312.222 307.452C307.337 310.749 301.828 313.023 296.035 314.16V314.615C295.978 339.687 275.871 360.096 251.107 360.096C240.94 360.096 231.057 356.628 223.162 350.204C219.924 347.589 217.084 344.576 214.642 341.222V341.279C212.2 344.633 209.36 347.703 206.122 350.318C198.227 356.685 188.401 360.153 178.234 360.153C153.47 360.153 133.306 339.744 133.306 314.615V314.16H133.25C127.456 313.023 121.947 310.749 117.062 307.452C104.396 298.981 96.8417 284.711 96.8417 269.475C96.8417 265.666 97.3529 261.8 98.2617 258.105C74.7471 248.895 63.1601 222.346 72.4183 198.809C74.4063 193.693 77.303 189.031 80.9381 184.937C81.9037 183.857 82.9261 182.834 83.9484 181.867C88.2083 177.888 93.2634 174.818 98.7161 172.828H98.7729C97.4665 168.564 96.8417 164.13 96.8417 159.639C96.8417 137.467 112.575 118.99 133.25 114.953V114.555C133.25 89.4841 153.413 69.0176 178.177 69.0176C188.344 69.0176 198.17 72.4855 206.065 78.9097C209.303 81.5249 212.143 84.538 214.585 87.8922V87.9491C217.028 84.5948 219.868 81.5817 223.105 78.9666C231 72.5424 240.883 69.0744 251.05 69.0744C275.814 69.0744 295.978 89.4841 295.978 114.612V115.01C316.709 119.047 332.386 137.58 332.386 159.695C332.386 164.187 331.704 168.621 330.454 172.885C335.907 174.875 340.962 177.945 345.222 181.924C346.301 182.891 347.324 183.914 348.289 184.994C355.843 193.408 359.99 204.324 359.99 215.637C360.103 234.398 348.573 251.283 331.079 258.048Z" fill="#3A1A44"/>
<path d="M331.079 258.048C332.045 261.744 332.499 265.609 332.499 269.418C332.499 284.711 324.888 298.981 312.222 307.452C307.337 310.749 301.828 313.023 296.035 314.16V314.615C295.978 339.687 275.871 360.096 251.107 360.096C240.94 360.096 231.057 356.628 223.162 350.204C219.924 347.589 217.084 344.576 214.642 341.222V87.8922C217.084 84.538 219.924 81.5249 223.162 78.9097C231.057 72.4855 240.94 69.0176 251.107 69.0176C275.871 69.0176 296.035 89.4272 296.035 114.555V114.953C316.766 118.99 332.442 137.523 332.442 159.639C332.442 164.13 331.761 168.564 330.511 172.828C335.964 174.818 341.019 177.888 345.279 181.867C346.358 182.834 347.381 183.857 348.346 184.937C365.215 203.698 363.682 232.636 344.881 249.52C340.849 253.159 336.134 256.058 331.079 258.048Z" fill="#BC8DA0"/>
<path d="M191.128 243.835C173.406 243.835 158.979 229.225 158.979 211.316H176.019C176.019 219.844 182.778 226.78 191.128 226.78C199.477 226.78 206.236 219.844 206.236 211.316H223.276C223.219 229.225 208.849 243.835 191.128 243.835Z" fill="#BC8DA0"/>
<path d="M270.475 183.232H253.435C253.435 174.704 246.676 167.768 238.327 167.768C229.978 167.768 223.219 174.704 223.219 183.232H206.179C206.179 165.324 220.606 150.713 238.327 150.713C256.048 150.713 270.475 165.267 270.475 183.232Z" fill="#3A1A44"/>
<path d="M140.804 202.789V219.844C115.358 219.844 93.4905 204.153 84.0051 181.867C88.265 177.888 93.3201 174.818 98.7728 172.828C105.021 190.281 121.492 202.789 140.804 202.789Z" fill="#BC8DA0"/>
<path d="M176.814 257.821V274.876C154.436 274.876 135.919 292.045 133.307 314.16C127.513 313.023 122.004 310.749 117.119 307.452C122.685 279.197 147.336 257.821 176.814 257.821Z" fill="#BC8DA0"/>
<path d="M345.393 181.811C335.282 206.427 311.313 223.767 283.425 223.767V206.711C305.179 206.711 323.752 192.555 330.625 172.771C336.078 174.818 341.076 177.888 345.393 181.811Z" fill="#3A1A44"/>
<path d="M312.279 307.452C307.394 310.749 301.885 313.023 296.091 314.16V314.615C293.819 291.761 274.792 273.796 251.732 273.796V256.741C281.778 256.741 306.883 278.628 312.279 307.452Z" fill="#3A1A44"/>
<path d="M223.219 78.8528V350.147C219.981 347.532 217.141 344.519 214.699 341.165V341.222C212.256 344.576 209.416 347.646 206.179 350.261V78.8528C209.416 81.4679 212.256 84.4811 214.699 87.8353V87.8921C217.141 84.4811 219.981 81.4679 223.219 78.8528Z" fill="#BC8DA0"/>
<path d="M223.219 78.8528V350.147C219.981 347.532 217.141 344.519 214.699 341.165V87.8921C217.141 84.4811 219.981 81.4679 223.219 78.8528Z" fill="#3A1A44"/>
</svg>
